#!OML:ASF X:\für Bonn\!DataBase\2005_08_11_Bastian_Final\c3d\Bastian.ASF
:FULLY-SPECIFIED
:DEGREES
61
root 0.0490785 8.36272 6.27626 164.643 -9.60843 -175.841
lowerback 30.7546 -2.47798 3.0724
upperback 7.04908 -3.9541 1.048
thorax -8.96033 -2.67679 1.00218
lowerneck -11.281 -5.87026 -5.92457
upperneck -9.52174 -8.09774 11.1184
head -0.362743 -4.4582 4.43994
rclavicle -4.57205e-014 2.10712e-014
rhumerus 70.3013 13.1203 5.40474
rradius 40.2877
rwrist -55.8568
rhand -44.9881 -5.97296
rfingers 7.12502
rthumb -17.7722 -35.1808
lclavicle -4.57205e-014 2.10712e-014
lhumerus 65.5189 -14.4145 -9.23262
lradius 32.719
lwrist 6.67002
lhand -43.9147 14.719
lfingers 7.12502
lthumb -16.7391 44.0174
rfemur -39.1395 -53.4637 7.46515
rtibia 145.495
rfoot -52.0973 7.30175
rtoes 7.78541
lfemur -54.3056 26.1139 -4.89312
ltibia 146.338
lfoot -45.0373 -25.7915
ltoes -8.35737
62
root 0.0453339 8.16353 6.27223 164.345 -9.48632 -175.705
lowerback 31.0131 -2.44977 3.18546
upperback 7.15541 -3.9176 1.09786
thorax -8.96169 -2.68086 0.992584
lowerneck -11.205 -5.83594 -5.96471
upperneck -9.67499 -8.05533 11.1968
head -0.424921 -4.44774 4.48576
rclavicle -2.14439e-014 -1.2921e-015
rhumerus 70.3257 12.9992 5.45691
rradius 40.2865
rwrist -55.9949
rhand -44.7937 -6.07982
rfingers 7.12502
rthumb -17.5851 -35.3045
lclavicle -2.14439e-014 -1.2921e-015
lhumerus 65.4052 -14.4762 -9.54051
lradius 32.7824
lwrist 7.0746
lhand -44.0266 14.6557
lfingers 7.12502
lthumb -16.8468 43.9449
rfemur -36.2707 -57.0202 3.60661
rtibia 147.173
rfoot -52.9489 7.57831
rtoes 8.2427
lfemur -54.5061 28.5831 -3.57967
ltibia 148.055
lfoot -45.4912 -26.5619
ltoes -7.71266
63
root 0.0415146 7.96759 6.27049 164.076 -9.36085 -175.539
lowerback 31.2351 -2.4265 3.36415
upperback 7.26852 -3.86932 1.13201
thorax -8.9412 -2.68052 0.920282
lowerneck -11.1026 -5.81229 -5.97202
upperneck -9.88174 -8.03395 11.2984
head -0.507958 -4.45333 4.53499
rclavicle 6.95746e-015 1.3418e-014
rhumerus 70.294 12.8387 5.49315
rradius 40.2824
rwrist -56.1085
rhand -44.5586 -6.27764
rfingers 7.12502
rthumb -17.3589 -35.5225
lclavicle 6.95746e-015 1.3418e-014
lhumerus 65.3352 -14.5173 -10.1361
lradius 32.965
lwrist 7.68958
lhand -44.1533 14.7171
lfingers 7.12502
lthumb -16.9688 43.9958
rfemur -32.3226 -60.6148 -1.29205
rtibia 148.787
rfoot -53.7812 7.73963
rtoes 8.87754
lfemur -54.7094 31.2119 -2.14892
ltibia 149.735
lfoot -45.8754 -27.3348
ltoes -6.88136
64
root 0.0378744 7.775 6.26842 163.79 -9.22673 -175.366
lowerback 31.472 -2.39493 3.50931
upperback 7.38747 -3.82155 1.20085
thorax -8.91586 -2.68177 0.907201
lowerneck -11.0816 -5.79006 -6.01094
upperneck -10.0217 -8.00912 11.3757
head -0.555152 -4.45133 4.57714
rclavicle -1.12313e-014 7.15625e-015
rhumerus 70.3043 12.6656 5.47622
rradius 40.2385
rwrist -56.0665
rhand -44.2608 -6.51552
rfingers 7.12502
rthumb -17.0723 -35.7854
lclavicle -1.12313e-014 7.15625e-015
lhumerus 65.2731 -14.5607 -10.7773
lradius 33.1123
lwrist 8.38075
lhand -44.2639 14.7489
lfingers 7.12502
lthumb -17.0752 44.0185
rfemur -26.3909 -64.2141 -8.14263
rtibia 150.345
rfoot -54.6693 7.7441
rtoes 9.33257
lfemur -54.7381 34.0483 -0.507579
ltibia 151.367
lfoot -46.3656 -28.1048
ltoes -6.09467
65
root 0.0331915 7.58768 6.26544 163.516 -9.08901 -175.225
lowerback 31.6838 -2.364 3.65384
upperback 7.50584 -3.77621 1.2403
thorax -8.88077 -2.68324 0.860377
lowerneck -11.0762 -5.75435 -6.00321
upperneck -10.2678 -7.92854 11.7793
head -0.522961 -4.43722 4.28767
rclavicle 5.71506e-015 -1.28216e-014
rhumerus 70.2841 12.5028 5.3471
rradius 40.1718
rwrist -55.9386
rhand -43.9598 -6.73564
rfingers 7.12502
rthumb -16.7825 -36.0303
lclavicle 5.71506e-015 -1.28216e-014
lhumerus 65.2178 -14.6226 -11.5719
lradius 33.3279
lwrist 9.08427
lhand -44.3831 14.9649
lfingers 7.12502
lthumb -17.19 44.2245
rfemur -17.9591 -67.4712 -17.5462
rtibia 151.844
rfoot -55.5022 7.72642
rtoes 10.0612
lfemur -54.6076 36.9968 1.19732
ltibia 152.923
lfoot -46.9538 -28.7307
ltoes -5.43915
66
root 0.0282456 7.40505 6.26311 163.239 -8.95944 -175.081
lowerback 31.8871 -2.33378 3.78989
upperback 7.63245 -3.73688 1.28763
thorax -8.8305 -2.68846 0.828582
lowerneck -11.0384 -5.7207 -6.00916
upperneck -10.4349 -7.89205 11.8531
head -0.576988 -4.43329 4.31875
rclavicle -1.30949e-014 1.71949e-014
rhumerus 70.2707 12.3429 5.17863
rradius 40.086
rwrist -55.6873
rhand -43.7278 -6.98026
rfingers 7.12502
rthumb -16.5592 -36.2937
lclavicle -1.30949e-014 1.71949e-014
lhumerus 65.1635 -14.6623 -12.3348
lradius 33.5138
lwrist 9.71923
lhand -44.4914 15.3008
lfingers 7.12502
lthumb -17.2942 44.5513
rfemur -6.24136 -70.0307 -30.1831
rtibia 153.281
rfoot -56.3378 7.39945
rtoes 10.3819
lfemur -54.3299 40.0034 3.08393
ltibia 154.406
lfoot -47.4725 -29.4041
ltoes -4.50568
67
root 0.0226519 7.22978 6.26001 162.977 -8.82447 -174.919
lowerback 32.3518 -2.3259 3.98335
upperback 7.31848 -3.6856 1.35011
thorax -8.61714 -2.6983 0.758172
lowerneck -11.0734 -5.69901 -5.99373
upperneck -10.5219 -7.87227 11.9112
head -0.596446 -4.43263 4.33631
rclavicle 2.95692e-015 1.94809e-014
rhumerus 70.2444 12.1741 4.79168
rradius 39.9365
rwrist -55.278
rhand -43.4696 -7.14375
rfingers 7.12502
rthumb -16.3105 -36.4778
lclavicle 2.95692e-015 1.94809e-014
lhumerus 65.1021 -14.7053 -13.1304
lradius 33.7028
lwrist 10.3019
lhand -44.6342 15.7029
lfingers 7.12502
lthumb -17.4316 44.9413
rfemur 7.72611 -71.3893 -44.9937
rtibia 154.652
rfoot -57.0475 7.00564
rtoes 10.949
lfemur -53.903 43.1507 5.19128
ltibia 155.824
lfoot -47.8061 -30.1984
ltoes -3.28603
68
root 0.0175214 7.06081 6.25712 162.738 -8.68451 -174.805
lowerback 32.5205 -2.28601 4.09749
upperback 7.43286 -3.63828 1.38475
thorax -8.55598 -2.69772 0.722544
lowerneck -11.0079 -5.66209 -5.96388
upperneck -10.7226 -7.83687 11.9777
head -0.666388 -4.43332 4.36131
rclavicle -3.68249e-014 4.05521e-014
rhumerus 70.2125 12.0491 4.24525
rradius 39.7316
rwrist -54.7617
rhand -43.2835 -7.17281
rfingers 7.12502
rthumb -16.1314 -36.5215
lclavicle -3.68249e-014 4.05521e-014
lhumerus 65.0131 -14.7206 -13.719
lradius 33.8445
lwrist 10.6489
lhand -44.7728 16.2116
lfingers 7.12502
lthumb -17.565 45.4381
rfemur 22.167 -71.4167 -60.2587
rtibia 155.964
rfoot -57.6314 6.46035
rtoes 11.4498
lfemur -53.2965 46.3263 7.41788
ltibia 157.169
lfoot -47.8957 -31.0111
ltoes -1.70689
69
root 0.0117975 6.9015 6.25501 162.495 -8.53809 -174.64
lowerback 32.6841 -2.25536 4.27506
upperback 7.56067 -3.58639 1.43466
thorax -8.47789 -2.69794 0.667048
lowerneck -11.0648 -5.64034 -5.92542
upperneck -10.8209 -7.82174 12.0129
head -0.687689 -4.43666 4.36776
rclavicle 5.93869e-015 -1.2424e-014
rhumerus 70.1477 11.9042 3.61697
rradius 39.5399
rwrist -54.2449
rhand -43.1797 -7.07535
rfingers 7.12502
rthumb -16.0314 -36.4321
lclavicle 5.93869e-015 -1.2424e-014
lhumerus 64.9081 -14.6746 -14.0884
lradius 33.926
lwrist 10.8733
lhand -44.9447 16.6558
lfingers 7.12502
lthumb -17.7304 45.8675
rfemur 34.2774 -70.3786 -72.997
rtibia 157.184
rfoot -58.0637 5.8459
rtoes 11.9261
lfemur -52.5004 49.4828 9.91154
ltibia 158.446
lfoot -47.8285 -31.81
ltoes -0.273101
70
root 0.0061118 6.75206 6.2528 162.265 -8.39211 -174.522
lowerback 32.8569 -2.21964 4.38807
upperback 7.67208 -3.54475 1.48125
thorax -8.41966 -2.70066 0.647044
lowerneck -11.0558 -5.6086 -5.82661
upperneck -10.9472 -7.80012 11.9723
head -0.734548 -4.43944 4.34486
rclavicle 1.61513e-014 -2.20651e-014
rhumerus 70.1336 11.7761 2.99742
rradius 39.3737
rwrist -53.8891
rhand -43.2012 -6.84185
rfingers 7.12502
rthumb -16.0522 -36.1969
lclavicle 1.61513e-014 -2.20651e-014
lhumerus 64.7359 -14.6131 -14.1114
lradius 33.8942
lwrist 10.8238
lhand -45.0849 17.0391
lfingers 7.12502
lthumb -17.8654 46.2385
rfemur 44.8473 -68.4231 -84.2423
rtibia 158.33
rfoot -58.4174 5.12118
rtoes 12.2646
lfemur -51.6579 52.3895 12.2841
ltibia 159.653
lfoot -47.6015 -32.3377
ltoes 0.957195
71
root 0.00050128 6.61507 6.25067 162.068 -8.25525 -174.412
lowerback 33.0015 -2.17699 4.51702
upperback 7.79222 -3.49164 1.51448
thorax -8.34144 -2.69765 0.598379
lowerneck -11.0896 -5.59504 -5.76155
upperneck -11.0708 -7.80016 11.9954
head -0.767311 -4.45324 4.34414
rclavicle -2.05991e-014 1.2921e-015
rhumerus 70.0692 11.5981 2.50284
rradius 39.2776
rwrist -53.7852
rhand -43.3122 -6.50549
rfingers 7.12502
rthumb -16.159 -35.8519
lclavicle -2.05991e-014 1.2921e-015
lhumerus 64.5681 -14.4538 -13.8183
lradius 33.7938
lwrist 10.6293
lhand -45.2265 17.1976
lfingers 7.12502
lthumb -18.0016 46.3845
rfemur 53.0921 -65.8912 -93.1522
rtibia 159.383
rfoot -58.6726 4.47457
rtoes 12.7137
lfemur -50.7765 55.0143 14.564
ltibia 160.775
lfoot -47.3043 -32.5896
ltoes 1.65193
72
root -0.0053979 6.49453 6.24955 161.883 -8.11557 -174.283
lowerback 33.1677 -2.14546 4.65719
upperback 7.89856 -3.44548 1.55384
thorax -8.28609 -2.69767 0.554581
lowerneck -11.128 -5.56567 -5.64105
upperneck -11.1844 -7.78622 11.9695
head -0.802497 -4.4608 4.32003
rclavicle 1.24489e-014 -8.44835e-015
rhumerus 70.0325 11.4004 2.10153
rradius 39.2389
rwrist -53.9003
rhand -43.5183 -6.08968
rfingers 7.12502
rthumb -16.3575 -35.4199
lclavicle 1.24489e-014 -8.44835e-015
lhumerus 64.3705 -14.2484 -13.3071
lradius 33.6248
lwrist 10.3225
lhand -45.3205 17.2215
lfingers 7.12502
lthumb -18.092 46.4
rfemur 58.4486 -63.4768 -98.9912
rtibia 160.293
rfoot -58.7706 3.8789
rtoes 13.08
lfemur -49.897 57.3156 16.7394
ltibia 161.789
lfoot -46.9467 -32.6998
ltoes 2.09124
